<svg width="37" height="37" viewBox="0 0 37 37" fill="none" xmlns="http://www.w3.org/2000/svg">
<g opacity="0.3">
<path d="M26.7375 15.4538C26.1938 15.548 25.6531 15.6293 25.1228 15.7001L24.6502 10.7654C27.8206 8.73841 28.7612 5.18022 29.0129 2.74348C29.0913 1.9587 28.7747 1.18605 28.1683 0.682054C27.4354 0.0680002 26.4486 -0.148443 25.5261 0.102428C23.2443 0.693342 20.9032 1.02436 18.5471 1.08954C16.1911 1.02436 13.8497 0.693342 11.5682 0.102428C10.6454 -0.148443 9.65804 0.0691289 8.92602 0.684594C8.31959 1.18775 8.0024 1.95926 8.07972 2.74348C8.33116 5.17966 9.27115 8.73728 12.4405 10.7643L11.9715 15.701C11.4412 15.6293 10.9005 15.548 10.3567 15.4543C9.42015 15.285 8.46972 15.6685 7.91323 16.4406C7.37339 17.1766 7.30313 18.1569 7.73206 18.9626C8.50781 20.2813 9.66989 21.3296 11.0608 21.9665L8.31395 35.1202C8.14491 35.9346 8.64496 36.7383 9.45006 36.9471C10.2552 37.1559 11.0826 36.6962 11.3309 35.9024L13.534 28.9776H23.5609L25.7634 35.8999C26.0098 36.6971 26.8394 37.1596 27.6471 36.9493C28.4544 36.7394 28.9539 35.9312 28.7803 35.1151L26.036 21.9634C27.4269 21.3268 28.589 20.2782 29.3648 18.9595C29.7937 18.1538 29.7232 17.1737 29.1836 16.4375C28.6257 15.6657 27.6741 15.283 26.7375 15.4538ZM23.9018 15.85C23.4779 15.8965 23.069 15.9375 22.6751 15.9733L22.2823 11.8344C22.69 11.715 23.0893 11.5691 23.4782 11.3981L23.9018 15.85ZM18.5471 12.333C19.3926 12.3361 20.2366 12.2639 21.0691 12.1174L21.4433 16.0659C19.7326 16.1793 18.5686 16.183 18.546 16.183C18.5232 16.183 17.3605 16.1793 15.6484 16.0659L16.0226 12.1174C16.8562 12.2641 17.7008 12.3364 18.5471 12.333ZM9.30642 2.61706C9.27341 2.23468 9.43284 1.86106 9.73169 1.62035C10.0302 1.36948 10.4084 1.23346 10.7981 1.23685C10.9533 1.23798 11.1077 1.25858 11.2575 1.29837C13.6398 1.91976 16.0858 2.26347 18.5471 2.32245C21.0084 2.26347 23.4545 1.91976 25.8368 1.29837C26.369 1.15078 26.9396 1.27212 27.3657 1.62345C27.6634 1.86445 27.8217 2.23779 27.7879 2.6196C27.3886 6.48735 25.46 11.1001 18.5471 11.1001C16.7442 11.1622 14.9576 10.7411 13.3726 9.88017C13.3638 9.87593 13.357 9.86916 13.3486 9.86493C10.5644 8.23187 9.57874 5.2536 9.30642 2.61706ZM13.6186 11.3955C14.0072 11.5666 14.4068 11.7125 14.8146 11.8318L14.4218 15.9702C14.0275 15.9358 13.6186 15.8946 13.1951 15.8469L13.6186 11.3955ZM10.1547 35.5313C10.1118 35.667 9.98538 35.7593 9.84259 35.7588C9.74523 35.7593 9.65296 35.7156 9.59172 35.6397C9.52794 35.564 9.50198 35.4636 9.52089 35.3665L12.2079 22.4863C12.8259 22.7366 13.4566 22.9545 14.0975 23.139L10.1547 35.5313ZM21.7997 23.4435L22.3833 25.2789H14.711L15.2946 23.4435C17.4392 23.8973 19.655 23.8973 21.7997 23.4435ZM13.9237 27.7447L14.3156 26.5118H22.7761L23.1681 27.7447H13.9237ZM27.5723 35.3617C27.5926 35.4602 27.5669 35.5626 27.5026 35.6397C27.4413 35.7156 27.3491 35.7593 27.2517 35.7588C27.1081 35.7593 26.9811 35.6659 26.939 35.5288L22.9968 23.1379C23.6376 22.9534 24.2683 22.7355 24.8863 22.4849L27.5723 35.3617ZM28.2724 18.3818C27.4594 19.9181 25.4589 21.1713 22.4894 22.0066C19.9113 22.7321 17.183 22.7321 14.6049 22.0066C11.6354 21.1713 9.6349 19.9181 8.82189 18.3818C8.6111 17.9927 8.64581 17.5163 8.91135 17.1619C9.191 16.7713 9.67215 16.5789 10.1443 16.6686C12.9219 17.1323 15.7311 17.382 18.5471 17.4159C21.3626 17.382 24.171 17.132 26.9483 16.6686C27.4202 16.5789 27.9013 16.7713 28.1812 17.1619C28.4471 17.5158 28.4826 17.9921 28.2724 18.3818Z" fill="black"/>
</g>
</svg>
