<svg width="24" height="17" viewBox="0 0 24 17" fill="none" xmlns="http://www.w3.org/2000/svg">
<path d="M20.4362 0H2.71277C1.21695 0 0 1.21695 0 2.71277V14.2872C0 15.7831 1.21695 17 2.71277 17H20.4362C21.932 17 23.1489 15.7831 23.1489 14.2872V2.71277C23.1489 1.21695 21.932 0 20.4362 0ZM21.3404 14.2872C21.3404 14.7858 20.9348 15.1915 20.4362 15.1915H2.71277C2.21416 15.1915 1.80851 14.7858 1.80851 14.2872V2.71277C1.80851 2.21416 2.21416 1.80851 2.71277 1.80851H20.4362C20.9348 1.80851 21.3404 2.21416 21.3404 2.71277V14.2872Z" fill="black"/>
<path d="M21.1869 1.1275L11.5745 8.27731L1.9621 1.1275L0.88269 2.57861L11.5745 10.5313L22.2663 2.57861L21.1869 1.1275Z" fill="black"/>
</svg>
