<svg width="37" height="37" viewBox="0 0 37 37" fill="none" xmlns="http://www.w3.org/2000/svg">
<g opacity="0.3">
<g clip-path="url(#clip0)">
<path d="M4.64234 9.60021C1.96629 9.81321 -0.230905 12.1574 0.019483 14.9108C0.234395 17.2743 2.32379 19.2137 4.76918 18.9541C6.81968 18.7366 8.50185 16.9004 8.22968 14.7622C8.00847 13.0252 6.42177 11.5976 4.5892 11.8892C3.16645 12.1156 1.98999 13.4607 2.31461 14.9907C2.43227 15.545 2.7506 16.0261 3.20385 16.3523C3.65709 16.6786 4.28895 16.8386 4.90451 16.6426C5.30776 16.5142 5.62965 16.2566 5.84785 15.8863C6.06605 15.516 6.13686 14.9389 5.84511 14.4807C5.60992 14.1112 5.39405 14.038 5.05532 13.981C4.88602 13.9525 4.64919 13.942 4.39716 14.106C4.14513 14.2699 4.01158 14.6089 4.01158 14.8486C4.00925 15.0316 4.08007 15.2079 4.20855 15.3382C4.14129 15.3189 4.07459 15.2917 4.00391 15.2408C3.83886 15.1219 3.69668 14.9062 3.65421 14.7063C3.50916 14.0225 4.09664 13.3548 4.80411 13.2421C5.81059 13.0818 6.74146 13.9202 6.87077 14.9349C7.03938 16.2596 5.94715 17.4514 4.6244 17.5917C2.98414 17.7658 1.53195 16.4178 1.3836 14.7864C1.20581 12.8322 2.81032 11.1201 4.75096 10.9657C4.76822 10.9643 4.78562 10.9635 4.80288 10.9626H32.1976C32.2149 10.9639 32.2321 10.9645 32.2492 10.9657C34.1899 11.1201 35.7944 12.8322 35.6166 14.7867C35.4683 16.4182 34.0161 17.766 32.3758 17.5919C31.0529 17.4515 29.9607 16.2597 30.1294 14.9352C30.2586 13.9204 31.1895 13.0821 32.1961 13.2423C32.9036 13.3549 33.491 14.0227 33.3459 14.7066C33.3034 14.9064 33.1612 15.1223 32.9962 15.2411C32.9255 15.2919 32.8592 15.3191 32.7921 15.3384C32.9203 15.208 32.991 15.0318 32.9885 14.8489C32.9885 14.6092 32.8552 14.2702 32.6033 14.1062C32.3513 13.9423 32.1146 13.9528 31.9452 13.9813C31.6064 14.0383 31.3904 14.1116 31.1551 14.481C30.8635 14.939 30.9344 15.5162 31.1526 15.8866C31.3708 16.257 31.6927 16.5146 32.096 16.6428C32.7115 16.8387 33.3431 16.6789 33.7964 16.3526C34.2496 16.0263 34.5679 15.5453 34.6856 14.9909C35.0102 13.4611 33.8338 12.116 32.4111 11.8895C30.5786 11.5978 28.9917 13.0255 28.7707 14.7625C28.4984 16.9006 30.1809 18.7368 32.2314 18.9544C34.6767 19.2138 36.7659 17.2746 36.9809 14.911C37.2312 12.1575 35.034 9.81321 32.358 9.60035C32.3024 9.59186 32.251 9.59528 32.1977 9.59419H4.80301C4.74973 9.5909 4.69343 9.59706 4.64248 9.60062L4.64234 9.60021ZM2.06327 2.74811C1.68508 2.74811 1.3784 3.05479 1.3784 3.43298V4.80271C1.3784 4.98434 1.45058 5.15857 1.57906 5.28691L4.31854 8.02639C4.44702 8.15487 4.62111 8.22705 4.80274 8.22705H32.1975C32.3791 8.22705 32.5533 8.15487 32.6817 8.02639L35.4211 5.28691C35.5496 5.15843 35.6218 4.98434 35.6218 4.80271V3.43298C35.6218 3.05479 35.3151 2.74811 34.9369 2.74811C34.9369 2.74811 2.06327 2.74811 2.06327 2.74811ZM2.74813 4.11784H34.2521V4.5189L31.9137 6.85732H5.08627L2.74813 4.5189V4.11784ZM10.2817 13.706C9.9035 13.706 9.59682 14.0127 9.59682 14.3909V33.5672C9.59695 33.9455 9.90364 34.252 10.282 34.2519C10.4172 34.2519 10.5492 34.2119 10.6616 34.137L14.5573 31.5396C14.7444 31.4149 14.8584 31.2063 14.8624 30.9815L15.0756 18.5116C15.0756 18.5077 15.0756 18.5039 15.0756 18.5001C15.0756 18.0508 16.4533 18.0381 16.4454 18.4877C16.4454 18.4919 16.4454 18.496 16.4454 18.5001V29.458C16.4455 29.8363 16.7522 30.1428 17.1305 30.1427C17.2657 30.1427 17.3977 30.1027 17.5102 30.0278L21.6194 27.2883C21.8099 27.1613 21.9243 26.9475 21.9244 26.7185V18.5001C21.9244 18.0427 23.2942 18.0427 23.2942 18.5001V25.3488C23.2943 25.7271 23.6011 26.0336 23.9795 26.0333C24.0856 26.0333 24.1904 26.0086 24.2855 25.961L27.0249 24.5913C27.2568 24.4753 27.4034 24.2383 27.4035 23.9789V14.3907C27.4035 14.0125 27.0968 13.7059 26.7187 13.7059H10.2818H10.2817V13.706ZM10.9666 15.0757H26.0337V23.5555L24.6639 24.2404V18.5001C24.6639 16.217 20.5547 16.217 20.5547 18.5001V26.3519L17.8152 28.1784V18.5001V18.5121C17.8559 16.2214 13.7063 16.2089 13.7063 18.5001V18.4883L13.4992 30.5992L10.9668 32.2876V15.0757H10.9666Z" fill="black"/>
</g>
</g>
<defs>
<clipPath id="clip0">
<rect width="37" height="37" fill="white"/>
</clipPath>
</defs>
</svg>
