<svg width="39" height="38" viewBox="0 0 39 38" fill="none" xmlns="http://www.w3.org/2000/svg">
<g opacity="0.4">
<path d="M6.33521 26.8657C3.36278 26.8657 0.944275 29.2762 0.944275 32.2388C0.944275 35.2014 3.36278 37.612 6.33521 37.612C9.30763 37.612 11.7261 35.2014 11.7261 32.2388C11.7261 29.2762 9.30763 26.8657 6.33521 26.8657ZM6.33521 36.2687C4.10538 36.2687 2.29201 34.4613 2.29201 32.2388C2.29201 30.0164 4.10538 28.209 6.33521 28.209C8.56503 28.209 10.3784 30.0164 10.3784 32.2388C10.3784 34.4613 8.56503 36.2687 6.33521 36.2687Z" fill="black"/>
<path d="M19.8116 26.8657C16.8392 26.8657 14.4207 29.2762 14.4207 32.2388C14.4207 35.2014 16.8392 37.612 19.8116 37.612C22.7841 37.612 25.2026 35.2014 25.2026 32.2388C25.2026 29.2762 22.7841 26.8657 19.8116 26.8657ZM19.8116 36.2687C17.5818 36.2687 15.7684 34.4613 15.7684 32.2388C15.7684 30.0164 17.5818 28.209 19.8116 28.209C22.0415 28.209 23.8548 30.0164 23.8548 32.2388C23.8548 34.4613 22.0415 36.2687 19.8116 36.2687Z" fill="black"/>
<path d="M33.289 26.8657C30.3166 26.8657 27.8981 29.2762 27.8981 32.2388C27.8981 35.2014 30.3166 37.612 33.289 37.612C36.2614 37.612 38.6799 35.2014 38.6799 32.2388C38.6799 29.2762 36.2614 26.8657 33.289 26.8657ZM33.289 36.2687C31.0592 36.2687 29.2458 34.4613 29.2458 32.2388C29.2458 30.0164 31.0592 28.209 33.289 28.209C35.5188 28.209 37.3322 30.0164 37.3322 32.2388C37.3322 34.4613 35.5188 36.2687 33.289 36.2687Z" fill="black"/>
<path d="M6.33521 13.4328C3.36278 13.4328 0.944275 15.8434 0.944275 18.806C0.944275 21.7686 3.36278 24.1791 6.33521 24.1791C9.30763 24.1791 11.7261 21.7686 11.7261 18.806C11.7261 15.8434 9.30763 13.4328 6.33521 13.4328ZM6.33521 22.8358C4.10538 22.8358 2.29201 21.0284 2.29201 18.806C2.29201 16.5835 4.10538 14.7761 6.33521 14.7761C8.56503 14.7761 10.3784 16.5835 10.3784 18.806C10.3784 21.0284 8.56503 22.8358 6.33521 22.8358Z" fill="black"/>
<path d="M19.8116 13.4328C16.8392 13.4328 14.4207 15.8434 14.4207 18.806C14.4207 21.7686 16.8392 24.1791 19.8116 24.1791C22.7841 24.1791 25.2026 21.7686 25.2026 18.806C25.2026 15.8434 22.7841 13.4328 19.8116 13.4328ZM19.8116 22.8358C17.5818 22.8358 15.7684 21.0284 15.7684 18.806C15.7684 16.5835 17.5818 14.7761 19.8116 14.7761C22.0415 14.7761 23.8548 16.5835 23.8548 18.806C23.8548 21.0284 22.0415 22.8358 19.8116 22.8358Z" fill="black"/>
<path d="M33.289 13.4328C30.3166 13.4328 27.8981 15.8434 27.8981 18.806C27.8981 21.7686 30.3166 24.1791 33.289 24.1791C36.2614 24.1791 38.6799 21.7686 38.6799 18.806C38.6799 15.8434 36.2614 13.4328 33.289 13.4328ZM33.289 22.8358C31.0592 22.8358 29.2458 21.0284 29.2458 18.806C29.2458 16.5835 31.0592 14.7761 33.289 14.7761C35.5188 14.7761 37.3322 16.5835 37.3322 18.806C37.3322 21.0284 35.5188 22.8358 33.289 22.8358Z" fill="black"/>
<path d="M6.33521 0C3.36278 0 0.944275 2.41052 0.944275 5.37313C0.944275 8.33575 3.36278 10.7463 6.33521 10.7463C9.30763 10.7463 11.7261 8.33575 11.7261 5.37313C11.7261 2.41052 9.30763 0 6.33521 0ZM6.33521 9.40299C4.10538 9.40299 2.29201 7.5956 2.29201 5.37313C2.29201 3.15067 4.10538 1.34328 6.33521 1.34328C8.56503 1.34328 10.3784 3.15067 10.3784 5.37313C10.3784 7.5956 8.56503 9.40299 6.33521 9.40299Z" fill="black"/>
<path d="M19.8116 0C16.8392 0 14.4207 2.41052 14.4207 5.37313C14.4207 8.33575 16.8392 10.7463 19.8116 10.7463C22.7841 10.7463 25.2026 8.33575 25.2026 5.37313C25.2026 2.41052 22.7841 0 19.8116 0ZM19.8116 9.40299C17.5818 9.40299 15.7684 7.5956 15.7684 5.37313C15.7684 3.15067 17.5818 1.34328 19.8116 1.34328C22.0415 1.34328 23.8548 3.15067 23.8548 5.37313C23.8548 7.5956 22.0415 9.40299 19.8116 9.40299Z" fill="black"/>
<path d="M33.289 10.7463C36.2614 10.7463 38.6799 8.33575 38.6799 5.37313C38.6799 2.41052 36.2614 0 33.289 0C30.3166 0 27.8981 2.41052 27.8981 5.37313C27.8981 8.33575 30.3166 10.7463 33.289 10.7463ZM33.289 1.34328C35.5188 1.34328 37.3322 3.15067 37.3322 5.37313C37.3322 7.5956 35.5188 9.40299 33.289 9.40299C31.0592 9.40299 29.2458 7.5956 29.2458 5.37313C29.2458 3.15067 31.0592 1.34328 33.289 1.34328Z" fill="black"/>
</g>
</svg>
