<svg width="30" height="30" viewBox="0 0 30 30" fill="none" xmlns="http://www.w3.org/2000/svg">
<path d="M29.7044 0.0770099C29.5217 -0.0272869 29.2969 -0.0255291 29.1158 0.0815802L18.3783 6.43103C18.0997 6.59574 18.0075 6.95503 18.1722 7.23359C18.3368 7.51208 18.6961 7.60437 18.9747 7.43972L26.6787 2.88412L12.3288 17.7735L5.19161 15.59L14.506 10.0822C14.7845 9.91741 14.8768 9.55812 14.7121 9.27956C14.5474 9.00107 14.1881 8.90866 13.9095 9.07343L3.45179 15.2574C3.25198 15.3755 3.14071 15.6005 3.16819 15.831C3.19568 16.0616 3.35663 16.2541 3.57859 16.3221L12.1022 18.9297L15.8625 25.7742C15.8664 25.7813 15.8705 25.7873 15.8747 25.7926C15.9374 25.8973 16.0314 25.9828 16.1488 26.0321C16.2222 26.063 16.2993 26.078 16.376 26.078C16.5262 26.078 16.674 26.0203 16.7856 25.9111L21.1095 21.6853L29.2426 24.1736C29.2989 24.1907 29.3566 24.1992 29.414 24.1992C29.538 24.1992 29.6605 24.1598 29.7625 24.0843C29.9119 23.9738 30 23.799 30 23.6133V0.585955C30 0.375545 29.8872 0.181248 29.7044 0.0770099ZM15.8945 19.2908C15.8266 19.3889 15.7902 19.5052 15.7902 19.6245V23.2087L13.2225 18.535L24.585 6.74533L15.8945 19.2908ZM16.9621 24.1001V20.4165L19.8326 21.2947L16.9621 24.1001ZM28.8281 22.8213L17.3145 19.2989L28.8281 2.67798V22.8213Z" fill="black"/>
<path d="M9.63408 20.3659C9.40521 20.137 9.03431 20.137 8.80539 20.3659L3.33555 25.8357C3.10674 26.0645 3.10674 26.4355 3.33555 26.6644C3.45004 26.7788 3.59998 26.8359 3.74992 26.8359C3.89986 26.8359 4.0498 26.7788 4.16424 26.6643L9.63408 21.1945C9.86289 20.9657 9.86289 20.5947 9.63408 20.3659Z" fill="black"/>
<path d="M2.34789 27.6521C2.11903 27.4234 1.74813 27.4234 1.51926 27.6521L0.171606 28.9998C-0.0572021 29.2286 -0.0572021 29.5996 0.171606 29.8285C0.28604 29.9429 0.435981 30 0.585922 30C0.735864 30 0.885805 29.9428 1.00024 29.8284L2.34789 28.4808C2.5767 28.252 2.5767 27.8809 2.34789 27.6521Z" fill="black"/>
<path d="M8.35829 28.9652C8.24936 28.8562 8.09819 28.7935 7.94409 28.7935C7.78935 28.7935 7.63882 28.8562 7.52983 28.9652C7.42085 29.0742 7.35815 29.2248 7.35815 29.3795C7.35815 29.5336 7.42079 29.6847 7.52983 29.7937C7.63882 29.9027 7.78999 29.9654 7.94409 29.9654C8.09819 29.9654 8.24936 29.9027 8.35829 29.7937C8.46727 29.6847 8.53003 29.5336 8.53003 29.3795C8.53003 29.2248 8.46733 29.0742 8.35829 28.9652Z" fill="black"/>
<path d="M12.7178 24.6056C12.4891 24.3768 12.1182 24.3768 11.8891 24.6056L8.99192 27.5027C8.76311 27.7315 8.76311 28.1026 8.99192 28.3314C9.10635 28.4458 9.25629 28.503 9.40623 28.503C9.55618 28.503 9.70612 28.4457 9.82055 28.3314L12.7178 25.4342C12.9466 25.2054 12.9466 24.8344 12.7178 24.6056Z" fill="black"/>
<path d="M22.717 24.3831C22.4881 24.1544 22.1172 24.1544 21.8883 24.3831L18.9833 27.2882C18.7544 27.517 18.7544 27.888 18.9833 28.1169C19.0977 28.2313 19.2476 28.2885 19.3976 28.2885C19.5475 28.2885 19.6975 28.2313 19.8119 28.1169L22.717 25.2118C22.9458 24.983 22.9458 24.612 22.717 24.3831Z" fill="black"/>
<path d="M16.6113 7.9869C16.5023 7.87791 16.3511 7.81522 16.197 7.81522C16.0429 7.81522 15.8917 7.87791 15.7828 7.9869C15.6738 8.09588 15.6111 8.24705 15.6111 8.40174C15.6111 8.55584 15.6738 8.70643 15.7828 8.81541C15.8917 8.92498 16.0429 8.98709 16.197 8.98709C16.3511 8.98709 16.5023 8.92498 16.6113 8.81541C16.7202 8.70643 16.783 8.55584 16.783 8.40174C16.783 8.24705 16.7203 8.09588 16.6113 7.9869Z" fill="black"/>
</svg>
