<svg width="37" height="37" viewBox="0 0 37 37" fill="none" xmlns="http://www.w3.org/2000/svg">
<g opacity="0.3">
<g clip-path="url(#clip0)">
<path d="M33.4761 7.41679L18.833 0.0655511C18.6594 -0.0216737 18.4548 -0.0218905 18.2811 0.0649007L3.53224 7.41801C2.40367 7.97547 1.69106 9.12696 1.69582 10.3858V28.2854C1.69582 28.519 1.82778 28.7325 2.0367 28.837L6.08358 30.8617C6.10411 30.8701 6.12514 30.8774 6.14646 30.8836C6.19834 30.9066 6.25428 30.9189 6.31101 30.9199C6.32755 30.9213 6.34338 30.9266 6.36 30.9266L6.36838 30.9246C6.45265 30.9226 6.53554 30.903 6.61178 30.8671C6.61936 30.8637 6.62767 30.8653 6.63519 30.8615L10.6821 28.8369C10.8909 28.7324 11.0229 28.5188 11.023 28.2853V25.2341L13.8365 26.6419V34.3586C13.8365 34.5922 13.9684 34.8057 14.1774 34.9102L18.2242 36.9349C18.3979 37.0216 18.6022 37.0216 18.7758 36.9349L22.8227 34.9102C23.0316 34.8057 23.1635 34.5922 23.1636 34.3586V26.6419L25.9771 25.2342V28.2854C25.9771 28.519 26.1091 28.7325 26.318 28.837L30.3649 30.8617C30.3725 30.8654 30.3807 30.8638 30.3883 30.8672C30.4645 30.9031 30.5474 30.9227 30.6317 30.9248L30.6401 30.9268C30.6567 30.9268 30.6724 30.9214 30.689 30.9201C30.7224 30.9183 30.7556 30.9137 30.7882 30.9065C30.831 30.8916 30.8737 30.8767 30.9165 30.8617L34.9634 28.8371C35.1723 28.7326 35.3042 28.519 35.3042 28.2855V10.3803C35.3086 9.12508 34.5999 7.97612 33.4761 7.41679ZM9.78952 24.9112V27.9042L6.976 29.3119V23.2093L9.85297 24.6488C9.81235 24.7304 9.79068 24.82 9.78952 24.9112ZM18.1916 35.5395L15.0698 33.9775V26.2607C15.0698 26.0272 14.9378 25.8136 14.7289 25.7091L6.63512 21.6597C6.4439 21.5643 6.21699 21.5745 6.03517 21.6869C5.85342 21.7993 5.74271 21.9976 5.74264 22.2113V29.312L2.92911 27.9041V16.4611L18.1916 24.097V35.5395ZM18.1916 18.8185V22.7178L2.92911 15.0818V10.3858C2.92608 9.59509 3.37355 8.87164 4.08233 8.5213L18.5554 1.30614L32.9227 8.51884H32.923C33.2302 8.67392 33.4941 8.90293 33.6907 9.18535L19.8534 16.1284C18.8321 16.6352 18.1876 17.6784 18.1916 18.8185ZM30.0239 29.3119L27.2104 27.9042V24.6171L30.0239 23.2094V29.3119ZM34.0708 27.9041L31.2573 29.3121V22.2114C31.2572 21.9977 31.1465 21.7993 30.9648 21.687C30.783 21.5746 30.556 21.5643 30.3648 21.6598L22.271 25.7091C22.0622 25.8136 21.9302 26.0271 21.9302 26.2607V33.9774L18.8083 35.5394V24.0969L34.0708 16.4611V27.9041ZM34.0708 15.0818L18.8083 22.7178V18.8185C18.8049 17.9121 19.3174 17.0826 20.1295 16.68L33.9667 9.73717C34.0348 9.94479 34.0699 10.1617 34.0708 10.3803V15.0818Z" fill="black"/>
<path d="M16.6145 15.8622L5.82281 10.4634C5.72424 10.4138 5.60667 10.4207 5.51453 10.4814C5.42239 10.5421 5.36971 10.6475 5.37643 10.7576C5.38315 10.8678 5.44819 10.966 5.54698 11.015L16.3386 16.4139C16.3813 16.4353 16.4285 16.4464 16.4762 16.4464C16.6193 16.4465 16.7438 16.3482 16.7766 16.2091C16.8097 16.0698 16.7425 15.9262 16.6145 15.8622Z" fill="black"/>
</g>
</g>
<defs>
<clipPath id="clip0">
<rect width="37" height="37" fill="white"/>
</clipPath>
</defs>
</svg>
