<svg width="27" height="30" viewBox="0 0 27 30" fill="none" xmlns="http://www.w3.org/2000/svg">
<path d="M26.2754 14.6068L22.7597 7.57559C22.5895 7.27687 22.3506 7.08984 21.9734 7.08984H4.39528C4.02778 7.08984 3.78204 7.27219 3.60896 7.57559L0.0933316 14.6068C-0.0694418 14.9525 -0.0137193 15.2999 0.216964 15.5771L12.5217 29.6982C12.6886 29.8898 12.9301 30 13.1843 30C13.4386 30 13.6801 29.8898 13.847 29.6982L26.1517 15.5771C26.3809 15.3013 26.4391 14.9544 26.2754 14.6068ZM20.5513 8.84766L18.3078 13.3348L14.9422 8.84766H20.5513ZM16.7 14.1211H9.66872L13.1843 9.43359L16.7 14.1211ZM11.4265 8.84766L8.06091 13.3348L5.81736 8.84766H11.4265ZM4.39528 9.93398L6.48884 14.1211H2.30173L4.39528 9.93398ZM2.8115 15.8789H7.33025L11.6633 26.0379L2.8115 15.8789ZM13.1843 25.1232L9.24157 15.8789H17.1271L13.1843 25.1232ZM14.7054 26.0379L19.0384 15.8789H23.5572L14.7054 26.0379ZM19.8799 14.1211L21.9734 9.93398L24.067 14.1211H19.8799Z" fill="black"/>
<path d="M13.1843 0C12.6989 0 12.3054 0.393516 12.3054 0.878906V2.69531C12.3054 3.1807 12.6989 3.57422 13.1843 3.57422C13.6697 3.57422 14.0632 3.1807 14.0632 2.69531V0.878906C14.0632 0.393516 13.6697 0 13.1843 0Z" fill="black"/>
<path d="M9.45549 3.87581L8.21254 2.63286C7.86936 2.28962 7.31283 2.28962 6.96959 2.63286C6.62635 2.9761 6.62635 3.53257 6.96959 3.87581L8.21254 5.11876C8.55572 5.462 9.1123 5.46206 9.45549 5.11876C9.79873 4.77552 9.79873 4.21905 9.45549 3.87581Z" fill="black"/>
<path d="M19.3991 2.63286C19.0559 2.28962 18.4994 2.28962 18.1561 2.63286L16.9132 3.87581C16.57 4.21905 16.57 4.77552 16.9132 5.11876C17.2564 5.462 17.813 5.46206 18.1561 5.11876L19.3991 3.87581C19.7423 3.53257 19.7423 2.9761 19.3991 2.63286Z" fill="black"/>
</svg>
