<svg width="24" height="22" viewBox="0 0 24 22" fill="none" xmlns="http://www.w3.org/2000/svg">
<path fill-rule="evenodd" clip-rule="evenodd" d="M23.1099 4.28461C22.9449 4.07343 22.692 3.95029 22.4239 3.95029H5.37885L4.5946 0.668915C4.50073 0.276825 4.15015 1.79054e-09 3.74701 1.79054e-09H0.871399C0.390076 -3.05158e-05 0 0.390045 0 0.871338C0 1.35263 0.390076 1.74274 0.871399 1.74274H3.0592L5.89117 13.5925C5.98499 13.9849 6.33563 14.2614 6.73877 14.2614H20.3035C20.704 14.2614 21.0532 13.9884 21.1493 13.5997L23.2697 5.03104C23.3339 4.77084 23.2749 4.49576 23.1099 4.28461ZM19.6218 12.5187H7.42657L5.79535 5.69305H21.3105L19.6218 12.5187ZM18.4445 15.5107C16.8428 15.5107 15.5399 16.8138 15.5399 18.4154C15.5399 20.017 16.8429 21.32 18.4445 21.32C20.0461 21.32 21.3491 20.017 21.3491 18.4154C21.3491 16.8138 20.0461 15.5107 18.4445 15.5107ZM18.4445 19.5772C17.8037 19.5772 17.2827 19.0561 17.2827 18.4154C17.2827 17.7746 17.8037 17.2535 18.4445 17.2535C19.0853 17.2535 19.6063 17.7746 19.6063 18.4154C19.6063 19.0561 19.0853 19.5772 18.4445 19.5772ZM4.99597 18.4154C4.99597 16.8138 6.29895 15.5107 7.90057 15.5107C9.5022 15.5107 10.8052 16.8138 10.8052 18.4154C10.8052 20.017 9.5022 21.32 7.90057 21.32C6.29901 21.32 4.99597 20.017 4.99597 18.4154ZM6.73877 18.4154C6.73877 19.0561 7.25983 19.5772 7.90057 19.5772C8.54138 19.5772 9.06244 19.0561 9.06244 18.4154C9.06244 17.7746 8.54138 17.2535 7.90057 17.2535C7.25983 17.2535 6.73877 17.7746 6.73877 18.4154Z" fill="black"/>
</svg>
