<svg width="19" height="16" viewBox="0 0 19 16" fill="none" xmlns="http://www.w3.org/2000/svg">
<path fill-rule="evenodd" clip-rule="evenodd" d="M13.6202 6.10352e-05C15.0363 6.10352e-05 16.3619 0.558228 17.3529 1.57172C19.3421 3.60614 19.304 6.91754 17.2682 8.95343L10.7863 15.4348C10.4095 15.8116 9.91446 15.9999 9.41956 16C8.92453 16 8.4296 15.8116 8.05273 15.4348L1.52878 8.91083C0.542908 7.92505 0 6.61426 0 5.21997C0 3.82568 0.542908 2.51495 1.52878 1.52911C2.5148 0.54303 3.82565 0 5.21994 0C6.61377 0 7.92444 0.54303 8.91052 1.52911L9.41995 2.03857L9.92892 1.52924C10.9151 0.543091 12.226 6.10352e-05 13.6202 6.10352e-05ZM10.1028 14.7515L16.5847 8.27002C18.2481 6.60675 18.2827 3.90503 16.6617 2.24731C15.8541 1.42133 14.7739 0.966431 13.6201 0.966431C12.484 0.966431 11.4158 1.40894 10.6123 2.2124L8.63995 4.18634C8.54559 4.28076 8.42191 4.328 8.29813 4.328C8.1745 4.328 8.05093 4.28088 7.95657 4.18658C7.76782 3.99792 7.76767 3.69202 7.9563 3.50323L8.73679 2.72217L8.22711 2.21246C7.42361 1.40894 6.35562 0.966431 5.21994 0.966431C4.08383 0.966431 3.01562 1.40894 2.21216 2.21246C1.40884 3.01575 0.966461 4.0838 0.966461 5.21997C0.966461 6.35608 1.40884 7.42413 2.21216 8.22742L8.73615 14.7514C9.11292 15.1282 9.72604 15.1282 10.1028 14.7515ZM16.1149 2.72534C16.7229 3.33344 17.087 4.1416 17.1401 5.00104C17.1566 5.2674 16.954 5.49664 16.6877 5.513C16.6775 5.51367 16.6674 5.51398 16.6574 5.51398C16.4041 5.51398 16.1914 5.31677 16.1756 5.06055C16.137 4.43658 15.8728 3.84991 15.4315 3.40869C15.1185 3.0957 14.7311 2.86847 14.3111 2.75165C14.0539 2.68011 13.9035 2.4137 13.975 2.15656C14.0465 1.89948 14.3129 1.74902 14.5701 1.82056C15.1501 1.98199 15.6844 2.29486 16.1149 2.72534Z" fill="#276AB9"/>
</svg>
