<svg width="16" height="16" viewBox="0 0 16 16" fill="none" xmlns="http://www.w3.org/2000/svg">
<path d="M13.6568 2.34313C12.1458 0.832156 10.1369 0 8 0C5.86309 0 3.85409 0.832156 2.34313 2.34313C0.832125 3.85413 0 5.86312 0 8C0 10.1369 0.832125 12.1458 2.34313 13.6568C3.85413 15.1678 5.86309 16 8 16C10.1369 16 12.1458 15.1678 13.6568 13.6568C15.1678 12.1458 16 10.1369 16 8C16 5.86312 15.1678 3.85416 13.6568 2.34313ZM8 15.0625C4.10572 15.0625 0.9375 11.8943 0.9375 8C0.9375 4.10572 4.10572 0.9375 8 0.9375C11.8943 0.9375 15.0625 4.10572 15.0625 8C15.0625 11.8943 11.8943 15.0625 8 15.0625Z" fill="white"/>
<path d="M11.8219 5.43266C11.6389 5.24966 11.3421 5.24966 11.159 5.43269L7.0197 9.57203L4.84073 7.39306C4.6577 7.21003 4.36089 7.21003 4.17782 7.39306C3.99476 7.57609 3.99476 7.87291 4.17782 8.05597L6.68823 10.5664C6.77976 10.6579 6.89973 10.7037 7.01967 10.7037C7.13961 10.7037 7.25961 10.6579 7.35111 10.5664L11.8219 6.09556C12.005 5.91253 12.005 5.61572 11.8219 5.43266Z" fill="white"/>
</svg>
